<svg xmlns="http://www.w3.org/2000/svg" width="100" height="100" fill="none" viewBox="0 0 100 100"><path fill="#151515" d="M0 12C0 5.37258 5.37258 0 12 0H88C94.6274 0 100 5.37258 100 12V88C100 94.6274 94.6274 100 88 100H12C5.37258 100 0 94.6274 0 88V12Z"/><g clip-path="url(#clip0)"><path fill="#B8B9BA" fill-rule="evenodd" d="M50 50.7637V84.1144C50.5785 84.1144 50.9586 83.9885 51.4779 83.6906L78.082 68.4308C79.1324 67.8264 79.5608 66.8909 79.5608 65.6754V34.7318C79.5608 34.1221 79.4328 33.7574 79.1377 33.2483L50.8511 49.2916C50.3248 49.5934 50 50.1552 50 50.7637ZM64.78 69.9143C64.78 70.7621 64.4633 71.186 63.7243 71.6098L54.8563 76.6965C54.2229 77.1204 53.3784 76.9084 53.3784 76.0607V53.3828C53.3784 52.7761 53.9102 51.9899 54.4339 51.6873L74.7038 40.0305C75.2668 39.7052 75.7593 40.2261 75.7593 40.8782V52.9588C75.7593 53.5852 75.4653 54.1479 74.9148 54.4425L65.8358 59.3172C65.2852 59.6119 64.78 60.1745 64.78 60.8007V69.9143Z" clip-rule="evenodd"/><path fill="#F2F2F2" fill-rule="evenodd" d="M20.4401 65.6754V34.7318C20.4401 33.5149 21.0766 32.3684 22.1292 31.7646L47.8886 17.1406C48.4435 16.8454 49.3667 16.7167 50 16.7167C50.6334 16.7167 51.6107 16.8742 52.1115 17.1406L77.6598 31.7646C78.1653 32.0645 78.8518 32.7551 79.1377 33.2483L50.8446 49.3559C50.3183 49.6577 50 50.231 50 50.8395V84.1144C49.4216 84.1144 48.8302 83.9884 48.3109 83.6906L22.3404 68.6426C21.2878 68.039 20.4401 66.8924 20.4401 65.6754ZM24.2406 40.8782V52.9588C24.2406 53.8067 24.4518 54.2305 25.2963 54.6545L34.1643 59.741C35.009 60.1649 35.22 60.8007 35.22 61.4366V69.9143C35.22 70.762 35.4312 71.186 36.2757 71.6098L45.1438 76.6964C45.9883 77.1202 46.6218 76.9084 46.6218 76.0607V53.3828C46.6218 52.747 46.4107 52.1111 45.5661 51.6873L25.7186 40.2423C25.0852 39.8185 24.2406 40.0305 24.2406 40.8782ZM58.8681 26.4661L51.0558 30.9169C50.4224 31.3408 49.5778 31.3408 48.9443 30.9169L41.132 26.4661C40.6177 26.1743 39.958 26.1758 39.4429 26.4661L29.7303 31.9766C28.8858 32.4005 28.8858 33.2483 29.7303 33.6721L49.1555 44.9051C49.6754 45.2039 50.3247 45.2039 50.8446 44.9051L70.2697 33.6721C70.9032 33.2483 71.1143 32.4005 70.2697 31.9766L60.5572 26.4661C60.0421 26.1758 59.3823 26.1743 58.8681 26.4661Z" clip-rule="evenodd"/></g><defs><clipPath id="clip0"><rect width="100" height="68.831" fill="#fff" transform="translate(0 16)"/></clipPath></defs></svg>