<svg width="100" height="100" viewBox="0 0 100 100" fill="none" xmlns="http://www.w3.org/2000/svg">
<rect width="100" height="100" fill="white"/>
<path d="M0 12C0 5.37258 5.37258 0 12 0H88C94.6274 0 100 5.37258 100 12V88C100 94.6274 94.6274 100 88 100H12C5.37258 100 0 94.6274 0 88V12Z" fill="#16181D"/>
<path fill-rule="evenodd" clip-rule="evenodd" d="M35.272 34.0022H56.0643C57.8205 34.0022 59.2837 35.4561 59.2837 37.1986C59.2837 38.9412 57.8205 40.395 56.0643 40.395H35.272V34.0022ZM35.272 59.2807H60.7491C62.5053 59.2807 63.9706 60.7324 63.9706 62.477C63.9706 64.2197 62.5053 65.6714 60.7491 65.6714H35.272V59.2807ZM27 78.7478V21H47.4971C53.8675 21 59.211 22.3796 63.6775 25.2131C68.0691 27.9744 71.4361 31.6059 73.6329 36.0355C75.8299 40.4672 77 45.1153 77 49.9101C77 54.7768 75.9026 59.425 73.6329 63.7846C71.4361 68.2141 68.0691 71.7735 63.6775 74.6069C59.2837 77.3662 53.8675 78.82 47.4971 78.82H30.8077C29.7081 78.7478 27.0727 78.7478 27 78.7478ZM35.272 46.6414H49.694C51.4524 46.6414 52.9156 48.0931 52.9156 49.8378C52.9156 51.5805 51.4524 53.0343 49.694 53.0343H35.272V46.6414Z" fill="white"/>
</svg>
