<svg width="100" height="100" viewBox="0 0 100 100" fill="none" xmlns="http://www.w3.org/2000/svg">
<path d="M0 12C0 5.37258 5.37258 0 12 0H88C94.6274 0 100 5.37258 100 12V88C100 94.6274 94.6274 100 88 100H12C5.37258 100 0 94.6274 0 88V12Z" fill="black"/>
<path d="M49.4999 18C41.7827 18.0003 34.3175 20.7466 28.4399 25.7474C22.5623 30.7483 18.656 37.6774 17.4198 45.2949C16.1836 52.9124 17.6982 60.7212 21.6927 67.3241C25.6872 73.927 31.9009 78.8931 39.2219 81.3339C40.8469 81.6183 41.4562 80.6434 41.4562 79.7902C41.4562 79.0183 41.4156 76.4589 41.4156 73.7371C33.25 75.2402 31.1375 71.7466 30.4875 69.9185C29.7662 68.1405 28.6229 66.5649 27.1563 65.3278C26.0188 64.7184 24.3938 63.2153 27.1156 63.1747C28.1549 63.2875 29.1517 63.6492 30.0215 64.229C30.8914 64.8089 31.6086 65.5899 32.1125 66.5059C32.557 67.3044 33.1547 68.0074 33.8713 68.5745C34.588 69.1416 35.4095 69.5617 36.2888 69.8108C37.1681 70.0599 38.0879 70.133 38.9955 70.026C39.9032 69.919 40.7807 69.6339 41.578 69.1871C41.7187 67.5349 42.455 65.9901 43.6499 64.8404C36.4187 64.0279 28.8625 61.2247 28.8625 48.7936C28.8168 45.5636 30.0087 42.4386 32.1937 40.0593C31.2002 37.252 31.3164 34.1713 32.5187 31.4469C32.5187 31.4469 35.2405 30.5937 41.4562 34.7781C46.7741 33.3155 52.3882 33.3155 57.7061 34.7781C63.9216 30.5531 66.6435 31.4469 66.6435 31.4469C67.846 34.1712 67.9622 37.2521 66.9685 40.0593C69.1601 42.4345 70.353 45.5623 70.2997 48.7936C70.2997 61.2653 62.7028 64.0279 55.4717 64.8404C56.2473 65.6265 56.8447 66.5703 57.2232 67.6078C57.6017 68.6452 57.7525 69.752 57.6654 70.8528C57.6654 75.1998 57.6248 78.6934 57.6248 79.7903C57.6248 80.6434 58.2341 81.659 59.8591 81.334C67.1672 78.8734 73.363 73.8956 77.3405 67.2893C81.318 60.683 82.8182 52.8782 81.5735 45.2681C80.3287 37.658 76.42 30.7379 70.545 25.7431C64.67 20.7483 57.2111 18.004 49.4999 18V18Z" fill="white"/>
</svg>
