<svg width="100" height="100" viewBox="0 0 100 100" fill="none" xmlns="http://www.w3.org/2000/svg">
<path d="M0 12C0 5.37258 5.37258 0 12 0H88C94.6274 0 100 5.37258 100 12V88C100 94.6274 94.6274 100 88 100H12C5.37258 100 0 94.6274 0 88V12Z" fill="#35495E"/>
<path d="M54.8861 38.354L52.4906 42.5717L44.298 28.1435L19.1481 72.4298H36.1762C36.1762 74.7592 38.0334 76.6476 40.3244 76.6476H19.1481C17.6662 76.6476 16.2971 75.8433 15.5563 74.5384C14.8155 73.2334 14.8156 71.6258 15.5565 70.321L40.7064 26.0346C41.4473 24.7296 42.8168 23.9256 44.2988 23.9256C45.7809 23.9256 47.1503 24.7296 47.8913 26.0346L54.8861 38.354V38.354Z" fill="#00C58E"/>
<path d="M73.0412 70.321L57.2817 42.5717L54.8862 38.354L52.4906 42.5717L36.7329 70.321C35.9919 71.6258 35.9919 73.2334 36.7327 74.5384C37.4735 75.8433 38.8426 76.6476 40.3245 76.6476H69.4445C70.9266 76.6476 72.2963 75.8442 73.0376 74.5391C73.7788 73.2341 73.7789 71.6261 73.0378 70.321H73.0412ZM40.3245 72.4298L54.8862 46.7894L69.4445 72.4298H40.3245H40.3245Z" fill="white"/>
<path d="M84.3085 74.5387C83.5677 75.8434 82.1986 76.6476 80.7169 76.6476H69.4444C71.7353 76.6476 73.5925 74.7592 73.5925 72.4298H80.7083L60.5172 36.8725L57.2817 42.5717L54.8861 38.354L56.9256 34.7636C57.6666 33.4586 59.036 32.6546 60.5181 32.6546C62.0001 32.6546 63.3696 33.4586 64.1105 34.7636L84.3085 70.321C85.0495 71.6259 85.0495 73.2337 84.3085 74.5387V74.5387Z" fill="#108775"/>
</svg>
