<svg xmlns="http://www.w3.org/2000/svg" width="100" height="100" fill="none" viewBox="0 0 100 100"><path fill="#04183D" d="M0 12C0 5.37258 5.37258 0 12 0H88C94.6274 0 100 5.37258 100 12V88C100 94.6274 94.6274 100 88 100H12C5.37258 100 0 94.6274 0 88V12Z"/><path stroke="#fff" d="M45.6598 65.636C48.1959 61.8817 54.9128 49.9292 69.1766 49.9292C83.4404 49.9292 91.6944 62.3414 93.9999 65.7126"/><path stroke="#fff" d="M45.583 65.2529C48.1151 68.8777 55.9346 75.9028 70.1758 75.9028C84.4169 75.9028 91.6981 68.5844 94 65.3295"/><path stroke="#fff" d="M52.6534 71.8641L84.0092 54.8328"/><path fill="#FF4944" stroke="#fff" d="M74.8638 59.7363C68.5926 63.3527 68.485 73.1446 74.8638 75.5197C76.0678 75.4687 79.1675 75.0753 81.9342 73.9107C85.4694 72.4226 86.7759 71.9953 89.9269 69.4669C92.0787 60.196 81.135 56.1199 74.8638 59.7363Z"/><path stroke="#fff" d="M45.6598 65.636C48.1959 61.8817 54.9128 49.9292 69.1766 49.9292C83.4404 49.9292 91.6944 62.3414 93.9999 65.7126"/><path stroke="#fff" d="M45.583 65.2529C48.1151 68.8777 55.9346 75.9028 70.1758 75.9028C84.4169 75.9028 91.6981 68.5844 94 65.3295"/><path stroke="#fff" d="M52.6534 71.8641L84.0092 54.8328"/><path fill="#FF4944" stroke="#fff" d="M74.8638 59.7363C68.5926 63.3527 68.485 73.1446 74.8638 75.5197C76.0678 75.4687 79.1675 75.0753 81.9342 73.9107C85.4694 72.4226 86.7759 71.9953 89.9269 69.4669C92.0787 60.196 81.135 56.1199 74.8638 59.7363Z"/><path stroke="#fff" d="M42.4057 80H73.2866V76.0403M16.7875 21V54.4597L42.4057 80L16.7875 21ZM16.7875 21H50.3493L73.2866 43.8674L16.7875 21ZM16.7875 21L42.4057 46.5403L16.7875 21ZM42.4057 46.5403L73.2866 43.8674L42.4057 46.5403ZM42.4057 46.5403V80V46.5403ZM73.2866 43.8674V50.104V43.8674Z"/><path stroke="#fff" d="M42.4057 80H73.2866V76.0403M16.7875 21V54.4597L42.4057 80L16.7875 21ZM16.7875 21H50.3493L73.2866 43.8674L16.7875 21ZM16.7875 21L42.4057 46.5403L16.7875 21ZM42.4057 46.5403L73.2866 43.8674L42.4057 46.5403ZM42.4057 46.5403V80V46.5403ZM73.2866 43.8674V50.104V43.8674Z"/><path stroke="#fff" d="M24.1352 62.1812V77.5251L15 68.4177"/><path stroke="#fff" d="M24.1353 61.6863V77.5252L15.298 68.7148"/><path fill="#FF4944" d="M17.0331 21.5785L42.011 46.7403V79.4216L17.0331 54.2599V21.5785Z"/></svg>