<svg width="100" height="100" viewBox="0 0 100 100" fill="none" xmlns="http://www.w3.org/2000/svg">
<rect width="100" height="100" fill="white"/>
<path d="M0 12C0 5.37258 5.37258 0 12 0H88C94.6274 0 100 5.37258 100 12V88C100 94.6274 94.6274 100 88 100H12C5.37258 100 0 94.6274 0 88V12Z" fill="#1C1F23"/>
<path fill-rule="evenodd" clip-rule="evenodd" d="M48.5949 64.4329C58.9988 64.4329 67.4329 55.9988 67.4329 45.5949C67.4329 35.1909 58.9988 26.7568 48.5949 26.7568C38.1909 26.7568 29.7568 35.1909 29.7568 45.5949C29.7568 55.9988 38.1909 64.4329 48.5949 64.4329ZM48.5949 72.1897C63.2828 72.1897 75.1897 60.2828 75.1897 45.5949C75.1897 30.9069 63.2828 19 48.5949 19C33.9069 19 22 30.9069 22 45.5949C22 60.2828 33.9069 72.1897 48.5949 72.1897Z" fill="#E24C4C"/>
<path d="M48.5949 51.6895H64.6626L72.9735 74.96H64.6626L72.9735 86.5953L48.5949 63.3248H56.9058L48.5949 51.6895Z" fill="#E24C4C"/>
<path fill-rule="evenodd" clip-rule="evenodd" d="M67.0053 48.3652H42.135L50.4459 60.0004H40.2976L70.6781 89L75.6786 84.6631L71.1224 78.2844H77.6907L67.0053 48.3652ZM64.6626 74.96L72.9735 86.5953L48.5948 63.3248H56.9057L48.5948 51.6895H64.6626L72.9735 74.96H64.6626Z" fill="#1C1F23"/>
</svg>
