<svg xmlns="http://www.w3.org/2000/svg" width="100" height="100" fill="none" viewBox="0 0 100 100"><path fill="#F683AE" d="M0 12C0 5.37258 5.37258 0 12 0H88C94.6274 0 100 5.37258 100 12V88C100 94.6274 94.6274 100 88 100H12C5.37258 100 0 94.6274 0 88V12Z"/><path fill="#fff" d="M31.0254 41.1699H23.3438V62H17.1738V41.1699H9.63281V36.4062H31.0254V41.1699ZM40.2188 62H34.0664V36.4062H40.2188V62ZM65.8828 62H59.748L50.6777 46.0742V62H44.5078V36.4062H50.6777L59.7305 52.332V36.4062H65.8828V62ZM78.6621 47.5156L83.373 36.4062H90.0352L81.791 52.8066V62H75.5332V52.8066L67.3066 36.4062H73.9336L78.6621 47.5156Z"/></svg>