<svg xmlns="http://www.w3.org/2000/svg" width="100" height="100" fill="none" viewBox="0 0 100 100"><path fill="#35495E" d="M0 12C0 5.37258 5.37258 0 12 0H88C94.6274 0 100 5.37258 100 12V88C100 94.6274 94.6274 100 88 100H12C5.37258 100 0 94.6274 0 88V12Z"/><path fill="#41B883" d="M73.994 18H89.9925L49.9962 86.9935L10 18H40.5971L49.9962 33.9985L59.1954 18H73.994Z"/><path fill="#41B883" d="M10 18L49.9962 86.9935L89.9925 18H73.994L49.9962 59.3961L25.7985 18H10Z"/><path fill="#B4EBD2" d="M25.7985 18L49.9963 59.5961L73.994 18H59.1954L49.9963 33.9985L40.5971 18H25.7985Z"/></svg>